<svg xmlns="http://www.w3.org/2000/svg" viewBox="0 0 600 200">
  <!-- Main flexible band -->
  <rect x="10" y="70" width="580" height="60" rx="30" fill="#dddddd" stroke="#000000" stroke-width="2"/>
  
  <!-- Flexible PCB -->
  <rect x="20" y="80" width="560" height="40" rx="20" fill="#00ff00" fill-opacity="0.2" stroke="#00aa00" stroke-width="1" stroke-dasharray="5,5"/>
  
  <!-- Module slots -->
  <rect x="40" y="75" width="80" height="50" rx="10" fill="#ffffff" stroke="#000000" stroke-width="1"/>
  <text x="80" y="105" font-family="Arial" font-size="10" text-anchor="middle">Module 1</text>
  
  <rect x="140" y="75" width="80" height="50" rx="10" fill="#ffffff" stroke="#000000" stroke-width="1"/>
  <text x="180" y="105" font-family="Arial" font-size="10" text-anchor="middle">Module 2</text>
  
  <rect x="240" y="75" width="80" height="50" rx="10" fill="#ffffff" stroke="#000000" stroke-width="1"/>
  <text x="280" y="105" font-family="Arial" font-size="10" text-anchor="middle">Module 3</text>
  
  <rect x="340" y="75" width="80" height="50" rx="10" fill="#ffffff" stroke="#000000" stroke-width="1"/>
  <text x="380" y="105" font-family="Arial" font-size="10" text-anchor="middle">Module 4</text>
  
  <rect x="440" y="75" width="80" height="50" rx="10" fill="#ffffff" stroke="#000000" stroke-width="1"/>
  <text x="480" y="105" font-family="Arial" font-size="10" text-anchor="middle">Module 5</text>
  
  <!-- Connectors -->
  <circle cx="130" cy="100" r="5" fill="#gold"/>
  <circle cx="230" cy="100" r="5" fill="#gold"/>
  <circle cx="330" cy="100" r="5" fill="#gold"/>
  <circle cx="430" cy="100" r="5" fill="#gold"/>
  
  <!-- Power and data lines -->
  <line x1="20" y1="90" x2="580" y2="90" stroke="#ff0000" stroke-width="2"/>
  <line x1="20" y1="110" x2="580" y2="110" stroke="#0000ff" stroke-width="2"/>
  
  <!-- Labels -->
  <text x="300" y="30" font-family="Arial" font-size="16" font-weight="bold" text-anchor="middle">Biomonit Modular Band</text>
  <text x="10" y="90" font-family="Arial" font-size="10" text-anchor="start" fill="#ff0000">Power</text>
  <text x="10" y="110" font-family="Arial" font-size="10" text-anchor="start" fill="#0000ff">Data</text>
  <text x="300" y="170" font-family="Arial" font-size="12" text-anchor="middle">Flexible PCB with Power and Data Lines</text>
</svg>
